<svg xmlns="http://www.w3.org/2000/svg" width="48" height="48" viewBox="0 0 48 48" fill="none" shape-rendering="geometricPrecision"><rect width="48" height="48" fill="#372aac" rx="12"/><path fill="url(#c)" d="M0 0h48v48H0z"/><path fill="url(#e)" d="m19.5 12 3.818 8.182L31.5 24l-8.182 3.818L19.5 36l-3.818-8.182L7.5 24l8.182-3.818z"/><path fill="url(#f)" d="m22.535 29.496 4.766-.82L30 36l2.7-7.323L40.393 30 35.4 24l4.992-6-7.692 1.323L30 12l-2.7 7.323-4.766-.82.783 1.679L31.5 24l-8.182 3.818z" opacity=".5"/><rect width="46" height="46" x="1" y="1" stroke="url(#g)" stroke-width="2" rx="11"/><defs><linearGradient id="c" x1="24" x2="26" y1="0" y2="48" gradientUnits="userSpaceOnUse"><stop stop-color="#fff" stop-opacity="0"/><stop offset="1" stop-color="#fff" stop-opacity=".12"/></linearGradient><linearGradient id="e" x1="19.5" x2="19.5" y1="12" y2="36" gradientUnits="userSpaceOnUse"><stop stop-color="#fff" stop-opacity=".8"/><stop offset="1" stop-color="#fff" stop-opacity=".5"/></linearGradient><linearGradient id="f" x1="31.464" x2="31.464" y1="12" y2="36" gradientUnits="userSpaceOnUse"><stop stop-color="#fff" stop-opacity=".8"/><stop offset="1" stop-color="#fff" stop-opacity=".5"/></linearGradient><linearGradient id="g" x1="24" x2="24" y1="0" y2="48" gradientUnits="userSpaceOnUse"><stop stop-color="#fff" stop-opacity=".12"/><stop offset="1" stop-color="#fff" stop-opacity="0"/></linearGradient></defs></svg>
