<svg xmlns="http://www.w3.org/2000/svg" width="48" height="48" fill="none"><g filter="url(#a)"><g clip-path="url(#b)"><rect width="48" height="48" fill="#1447e6" rx="12"/><path fill="url(#c)" d="M0 0h48v48H0z"/><g filter="url(#d)"><path fill="url(#e)" d="M29.379 8.937c2.228 2.228-.542 8.61-6.187 14.255S11.165 31.607 8.936 29.38c-2.228-2.229.542-8.611 6.187-14.256S27.15 6.708 29.379 8.937" opacity=".7"/><path fill="url(#f)" d="M34.22 13.778c2.229 2.228-.541 8.61-6.186 14.256-5.645 5.645-12.027 8.415-14.256 6.186-2.228-2.228.542-8.61 6.187-14.255s12.027-8.415 14.255-6.187" opacity=".5"/><path fill="url(#g)" d="M39.062 18.62c2.229 2.228-.541 8.61-6.186 14.256-5.645 5.645-12.028 8.414-14.256 6.186s.541-8.61 6.186-14.256c5.645-5.645 12.028-8.414 14.256-6.186" opacity=".3"/></g></g><rect width="46" height="46" x="1" y="1" stroke="url(#h)" stroke-width="2" rx="11"/></g><defs><linearGradient id="c" x1="24" x2="26" y1="0" y2="48" gradientUnits="userSpaceOnUse"><stop stop-color="#fff" stop-opacity="0"/><stop offset="1" stop-color="#fff" stop-opacity=".12"/></linearGradient><linearGradient id="e" x1="19.157" x2="19.157" y1="8.166" y2="30.149" gradientUnits="userSpaceOnUse"><stop stop-color="#fff" stop-opacity=".8"/><stop offset="1" stop-color="#fff" stop-opacity=".5"/></linearGradient><linearGradient id="f" x1="23.999" x2="23.999" y1="13.008" y2="34.991" gradientUnits="userSpaceOnUse"><stop stop-color="#fff" stop-opacity=".8"/><stop offset="1" stop-color="#fff" stop-opacity=".5"/></linearGradient><linearGradient id="g" x1="28.841" x2="28.841" y1="17.849" y2="39.833" gradientUnits="userSpaceOnUse"><stop stop-color="#fff" stop-opacity=".8"/><stop offset="1" stop-color="#fff" stop-opacity=".5"/></linearGradient><linearGradient id="h" x1="24" x2="24" y1="0" y2="48" gradientUnits="userSpaceOnUse"><stop stop-color="#fff" stop-opacity=".12"/><stop offset="1" stop-color="#fff" stop-opacity="0"/></linearGradient><filter id="a" width="48" height="54" x="0" y="-3" color-interpolation-filters="sRGB" filterUnits="userSpaceOnUse"><feFlood flood-opacity="0" result="BackgroundImageFix"/><feBlend in="SourceGraphic" in2="BackgroundImageFix" result="shape"/><feColorMatrix in="SourceAlpha" result="hardAlpha" values="0 0 0 0 0 0 0 0 0 0 0 0 0 0 0 0 0 0 127 0"/><feOffset dy="-3"/><feGaussianBlur stdDeviation="1.5"/><feComposite in2="hardAlpha" k2="-1" k3="1" operator="arithmetic"/><feColorMatrix values="0 0 0 0 0 0 0 0 0 0 0 0 0 0 0 0 0 0 0.1 0"/><feBlend in2="shape" result="effect1_innerShadow_3051_46919"/><feColorMatrix in="SourceAlpha" result="hardAlpha" values="0 0 0 0 0 0 0 0 0 0 0 0 0 0 0 0 0 0 127 0"/><feOffset dy="3"/><feGaussianBlur stdDeviation="1.5"/><feComposite in2="hardAlpha" k2="-1" k3="1" operator="arithmetic"/><feColorMatrix values="0 0 0 0 1 0 0 0 0 1 0 0 0 0 1 0 0 0 0.1 0"/><feBlend in2="effect1_innerShadow_3051_46919" result="effect2_innerShadow_3051_46919"/><feColorMatrix in="SourceAlpha" result="hardAlpha" values="0 0 0 0 0 0 0 0 0 0 0 0 0 0 0 0 0 0 127 0"/><feMorphology in="SourceAlpha" radius="1" result="effect3_innerShadow_3051_46919"/><feOffset/><feComposite in2="hardAlpha" k2="-1" k3="1" operator="arithmetic"/><feColorMatrix values="0 0 0 0 0 0 0 0 0 0 0 0 0 0 0 0 0 0 0.2 0"/><feBlend in2="effect2_innerShadow_3051_46919" result="effect3_innerShadow_3051_46919"/></filter><filter id="d" width="37.999" height="44.333" x="4.999" y="4.208" color-interpolation-filters="sRGB" filterUnits="userSpaceOnUse"><feFlood flood-opacity="0" result="BackgroundImageFix"/><feColorMatrix in="SourceAlpha" result="hardAlpha" values="0 0 0 0 0 0 0 0 0 0 0 0 0 0 0 0 0 0 127 0"/><feMorphology in="SourceAlpha" radius="1.583" result="effect1_dropShadow_3051_46919"/><feOffset dy="2.375"/><feGaussianBlur stdDeviation="2.375"/><feComposite in2="hardAlpha" operator="out"/><feColorMatrix values="0 0 0 0 0.141176 0 0 0 0 0.141176 0 0 0 0 0.141176 0 0 0 0.1 0"/><feBlend in2="BackgroundImageFix" result="effect1_dropShadow_3051_46919"/><feBlend in="SourceGraphic" in2="effect1_dropShadow_3051_46919" result="shape"/></filter><clipPath id="b"><rect width="48" height="48" fill="#fff" rx="12"/></clipPath></defs></svg>
