<svg xmlns="http://www.w3.org/2000/svg" width="48" height="48" viewBox="0 0 48 48" fill="none" shape-rendering="geometricPrecision"><rect width="48" height="48" fill="#1447e6" rx="12"/><path fill="url(#c)" d="M0 0h48v48H0z"/><path fill="#fff" d="M29.379 8.937c2.228 2.228-.542 8.61-6.187 14.255S11.165 31.607 8.936 29.38c-2.228-2.229.542-8.611 6.187-14.256S27.15 6.708 29.379 8.937" opacity=".7"/><path fill="#fff" d="M34.22 13.778c2.229 2.228-.541 8.61-6.186 14.256-5.645 5.645-12.027 8.415-14.256 6.186-2.228-2.228.542-8.61 6.187-14.255s12.027-8.415 14.255-6.187" opacity=".5"/><path fill="#fff" d="M39.062 18.62c2.229 2.228-.541 8.61-6.186 14.256-5.645 5.645-12.028 8.414-14.256 6.186s.541-8.61 6.186-14.256c5.645-5.645 12.028-8.414 14.256-6.186" opacity=".3"/><rect width="46" height="46" x="1" y="1" stroke="url(#h)" stroke-width="2" rx="11"/><defs><linearGradient id="c" x1="24" x2="26" y1="0" y2="48" gradientUnits="userSpaceOnUse"><stop stop-color="#fff" stop-opacity="0"/><stop offset="1" stop-color="#fff" stop-opacity=".12"/></linearGradient><linearGradient id="h" x1="24" x2="24" y1="0" y2="48" gradientUnits="userSpaceOnUse"><stop stop-color="#fff" stop-opacity=".12"/><stop offset="1" stop-color="#fff" stop-opacity="0"/></linearGradient></defs></svg>
