<svg xmlns="http://www.w3.org/2000/svg" width="48" height="48" viewBox="0 0 48 48" fill="none" shape-rendering="geometricPrecision"><rect width="48" height="48" fill="#c6005c" rx="12"/><path fill="url(#c)" d="M0 0h48v48H0z"/><path fill="#fff" opacity=".7" d="M25.603 11.275a6 6 0 0 0-8.485 0L8.632 19.76a6 6 0 0 0 0 8.485l8.486 8.486a6 6 0 0 0 8.485 0l4.049-4.049a9.003 9.003 0 0 1 .407-16.945q-.105-.11-.213-.22z"/><path fill="#fff" d="M29.652 32.685a9 9 0 1 0 .408-16.946c4.472 4.701 4.4 12.138-.214 16.752z" opacity=".5"/><rect width="46" height="46" x="1" y="1" stroke="url(#g)" stroke-width="2" rx="11"/><defs><linearGradient id="c" x1="24" x2="26" y1="0" y2="48" gradientUnits="userSpaceOnUse"><stop stop-color="#fff" stop-opacity="0"/><stop offset="1" stop-color="#fff" stop-opacity=".12"/></linearGradient><linearGradient id="g" x1="24" x2="24" y1="0" y2="48" gradientUnits="userSpaceOnUse"><stop stop-color="#fff" stop-opacity=".12"/><stop offset="1" stop-color="#fff" stop-opacity="0"/></linearGradient></defs></svg>
