<svg xmlns="http://www.w3.org/2000/svg" width="48" height="48" viewBox="0 0 48 48" fill="none" shape-rendering="geometricPrecision"><rect width="48" height="48" fill="#007a55" rx="12"/><path fill="url(#c)" d="M0 0h48v48H0z"/><path stroke="url(#e)" stroke-width="3" d="M24 9v9.27c0 2.045-2.507 3.03-3.899 1.531L14.25 13.5M39 24h-9.27c-2.045 0-3.03-2.507-1.531-3.899L34.5 14.25M24 39v-9.27c0-2.045 2.507-3.03 3.899-1.531L33.75 34.5M9 24h9.27c2.045 0 3.03 2.507 1.531 3.899L13.5 33.75"/><rect width="46" height="46" x="1" y="1" stroke="url(#f)" stroke-width="2" rx="11"/><defs><linearGradient id="c" x1="24" x2="26" y1="0" y2="48" gradientUnits="userSpaceOnUse"><stop stop-color="#fff" stop-opacity="0"/><stop offset="1" stop-color="#fff" stop-opacity=".12"/></linearGradient><linearGradient id="e" x1="24" x2="24" y1="9" y2="39" gradientUnits="userSpaceOnUse"><stop stop-color="#fff" stop-opacity=".8"/><stop offset="1" stop-color="#fff" stop-opacity=".5"/></linearGradient><linearGradient id="f" x1="24" x2="24" y1="0" y2="48" gradientUnits="userSpaceOnUse"><stop stop-color="#fff" stop-opacity=".12"/><stop offset="1" stop-color="#fff" stop-opacity="0"/></linearGradient></defs></svg>
